<svg width="32" height="32" viewBox="0 0 32 32" fill="none" xmlns="http://www.w3.org/2000/svg">
  <rect width="32" height="32" fill="#2563EB" rx="4"/>
  <!-- Ticket/Coupon icon -->
  <path d="M6 10C6 8.89543 6.89543 8 8 8H24C25.1046 8 26 8.89543 26 10V12C24.8954 12 24 12.8954 24 14C24 15.1046 24.8954 16 26 16V22C26 23.1046 25.1046 24 24 24H8C6.89543 24 6 23.1046 6 22V16C7.10457 16 8 15.1046 8 14C8 12.8954 7.10457 12 6 12V10Z" fill="white"/>
  <!-- Dashed lines for ticket perforation -->
  <line x1="12" y1="10" x2="12" y2="22" stroke="#2563EB" stroke-width="1.5" stroke-dasharray="2,2"/>
  <line x1="20" y1="10" x2="20" y2="22" stroke="#2563EB" stroke-width="1.5" stroke-dasharray="2,2"/>
  <!-- Gift/bonus symbol -->
  <circle cx="16" cy="16" r="2" fill="#2563EB"/>
</svg>